# xmcd
# Copyright (C) 1995-1998 Ti Kan
#
# Track frame offsets:
#       150
#       98700
#       202483
#
# Disc length: 3985 seconds
#
# Revision: 0
# Processed by: cddbd v1.5.2PL0 Copyright (c) Steve Scherf et al.
# Submitted via: CD-Import v1.0
#
DISCID=270f8f03
DTITLE=Herr Der Ringe - Herr Der Ringe
DYEAR=1900
DGENRE=
TTITLE0=Hdr7.1
TTITLE1=Hdr7.2
TTITLE2=Hdr7.3
EXTD=
EXTT0=
EXTT1=
EXTT2=
PLAYORDER=
